<svg width="238" height="90" viewBox="0 0 238 90" fill="none" xmlns="http://www.w3.org/2000/svg">
<path d="M5.25415 24.1875H40.2542V34.0312H19.4729V42.0312H37.2229V51.2812H19.4729V70H5.25415V24.1875ZM46.0979 47.125C46.0979 39.6458 48.1812 33.8229 52.3479 29.6562C56.5146 25.4896 62.3167 23.4062 69.7542 23.4062C77.3792 23.4062 83.2542 25.4583 87.3792 29.5625C91.5042 33.6458 93.5667 39.375 93.5667 46.75C93.5667 52.1042 92.6604 56.5 90.8479 59.9375C89.0562 63.3542 86.4521 66.0208 83.0354 67.9375C79.6396 69.8333 75.4 70.7812 70.3167 70.7812C65.15 70.7812 60.8687 69.9583 57.4729 68.3125C54.0979 66.6667 51.3583 64.0625 49.2542 60.5C47.15 56.9375 46.0979 52.4792 46.0979 47.125ZM60.2542 47.1875C60.2542 51.8125 61.1083 55.1354 62.8167 57.1562C64.5458 59.1771 66.8896 60.1875 69.8479 60.1875C72.8896 60.1875 75.2437 59.1979 76.9104 57.2188C78.5771 55.2396 79.4104 51.6875 79.4104 46.5625C79.4104 42.25 78.5354 39.1042 76.7854 37.125C75.0562 35.125 72.7021 34.125 69.7229 34.125C66.8687 34.125 64.5771 35.1354 62.8479 37.1562C61.1187 39.1771 60.2542 42.5208 60.2542 47.1875ZM101.192 24.1875H115.348V58.7188H137.442V70H101.192V24.1875ZM144.442 24.1875H158.629V70H144.442V24.1875ZM167.035 47.125C167.035 39.6458 169.119 33.8229 173.285 29.6562C177.452 25.4896 183.254 23.4062 190.692 23.4062C198.317 23.4062 204.192 25.4583 208.317 29.5625C212.442 33.6458 214.504 39.375 214.504 46.75C214.504 52.1042 213.598 56.5 211.785 59.9375C209.994 63.3542 207.39 66.0208 203.973 67.9375C200.577 69.8333 196.337 70.7812 191.254 70.7812C186.087 70.7812 181.806 69.9583 178.41 68.3125C175.035 66.6667 172.296 64.0625 170.192 60.5C168.087 56.9375 167.035 52.4792 167.035 47.125ZM181.192 47.1875C181.192 51.8125 182.046 55.1354 183.754 57.1562C185.483 59.1771 187.827 60.1875 190.785 60.1875C193.827 60.1875 196.181 59.1979 197.848 57.2188C199.515 55.2396 200.348 51.6875 200.348 46.5625C200.348 42.25 199.473 39.1042 197.723 37.125C195.994 35.125 193.64 34.125 190.66 34.125C187.806 34.125 185.515 35.1354 183.785 37.1562C182.056 39.1771 181.192 42.5208 181.192 47.1875Z" fill="black"/>
<circle cx="229.68" cy="62.5" r="7.5" fill="#20E562"/>
</svg>
