<svg width="197" height="90" viewBox="0 0 197 90" fill="none" xmlns="http://www.w3.org/2000/svg">
<path d="M5.12915 24.1875H28.6604C33.7854 24.1875 37.6187 25.4062 40.1604 27.8438C42.7229 30.2812 44.0042 33.75 44.0042 38.25C44.0042 42.875 42.6083 46.4896 39.8167 49.0938C37.0458 51.6979 32.8062 53 27.0979 53H19.3479V70H5.12915V24.1875ZM19.3479 43.7188H22.8167C25.5458 43.7188 27.4625 43.25 28.5667 42.3125C29.6708 41.3542 30.2229 40.1354 30.2229 38.6562C30.2229 37.2188 29.7437 36 28.7854 35C27.8271 34 26.025 33.5 23.3792 33.5H19.3479V43.7188ZM49.6604 47.125C49.6604 39.6458 51.7437 33.8229 55.9104 29.6562C60.0771 25.4896 65.8792 23.4062 73.3167 23.4062C80.9417 23.4062 86.8167 25.4583 90.9417 29.5625C95.0667 33.6458 97.1292 39.375 97.1292 46.75C97.1292 52.1042 96.2229 56.5 94.4104 59.9375C92.6187 63.3542 90.0146 66.0208 86.5979 67.9375C83.2021 69.8333 78.9625 70.7812 73.8792 70.7812C68.7125 70.7812 64.4312 69.9583 61.0354 68.3125C57.6604 66.6667 54.9208 64.0625 52.8167 60.5C50.7125 56.9375 49.6604 52.4792 49.6604 47.125ZM63.8167 47.1875C63.8167 51.8125 64.6708 55.1354 66.3792 57.1562C68.1083 59.1771 70.4521 60.1875 73.4104 60.1875C76.4521 60.1875 78.8062 59.1979 80.4729 57.2188C82.1396 55.2396 82.9729 51.6875 82.9729 46.5625C82.9729 42.25 82.0979 39.1042 80.3479 37.125C78.6187 35.125 76.2646 34.125 73.2854 34.125C70.4312 34.125 68.1396 35.1354 66.4104 37.1562C64.6812 39.1771 63.8167 42.5208 63.8167 47.1875ZM104.942 70V24.1875H128.535C132.91 24.1875 136.254 24.5625 138.567 25.3125C140.879 26.0625 142.744 27.4583 144.16 29.5C145.577 31.5208 146.285 33.9896 146.285 36.9062C146.285 39.4479 145.744 41.6458 144.66 43.5C143.577 45.3333 142.087 46.8229 140.192 47.9688C138.983 48.6979 137.327 49.3021 135.223 49.7812C136.91 50.3438 138.14 50.9062 138.91 51.4688C139.431 51.8438 140.181 52.6458 141.16 53.875C142.16 55.1042 142.827 56.0521 143.16 56.7188L150.004 70H134.004L126.442 56C125.483 54.1875 124.629 53.0104 123.879 52.4688C122.858 51.7604 121.702 51.4062 120.41 51.4062H119.16V70H104.942ZM119.16 42.75H125.129C125.775 42.75 127.025 42.5417 128.879 42.125C129.817 41.9375 130.577 41.4583 131.16 40.6875C131.765 39.9167 132.067 39.0312 132.067 38.0312C132.067 36.5521 131.598 35.4167 130.66 34.625C129.723 33.8333 127.962 33.4375 125.379 33.4375H119.16V42.75ZM150.785 24.1875H193.817V35.5H179.379V70H165.223V35.5H150.785V24.1875Z" fill="black"/>
</svg>
